<?xml version="1.0" standalone="no"?>
<!DOCTYPE svg PUBLIC "-//W3C//DTD SVG 20010904//EN"
 "http://www.w3.org/TR/2001/REC-SVG-20010904/DTD/svg10.dtd">
<svg version="1.0" xmlns="http://www.w3.org/2000/svg"
 width="720.000000pt" height="720.000000pt" viewBox="0 0 720.000000 720.000000"
 preserveAspectRatio="xMidYMid meet">
<metadata>
Created by potrace 1.14, written by Peter Selinger 2001-2017
</metadata>
<g transform="translate(0.000000,720.000000) scale(0.100000,-0.100000)"
fill="#000000" stroke="none">
<path d="M4317 5703 c-4 -4 -31 -8 -60 -9 -28 -1 -54 -3 -57 -4 -3 -1 -9 -2
-13 -1 -4 1 -17 -3 -27 -9 -14 -8 -20 -8 -20 0 0 7 -6 8 -18 1 -10 -5 -29 -12
-43 -14 -13 -2 -31 -6 -39 -9 -8 -3 -40 -13 -70 -24 -30 -10 -66 -24 -80 -31
-14 -7 -31 -13 -38 -13 -7 0 -10 -4 -7 -10 3 -5 -1 -10 -10 -10 -16 0 -97 -49
-103 -62 -2 -5 -8 -8 -14 -8 -6 0 -21 -11 -34 -26 -13 -14 -24 -21 -24 -17 0
4 -5 0 -11 -9 -5 -10 -17 -18 -26 -18 -9 0 -14 -3 -10 -6 3 -3 -12 -24 -34
-45 -22 -21 -38 -39 -35 -39 3 0 -10 -16 -30 -35 -19 -19 -31 -35 -27 -35 4 0
-2 -8 -13 -19 -10 -10 -25 -28 -33 -39 -8 -12 -18 -19 -23 -16 -4 3 -6 -1 -3
-8 3 -7 -6 -25 -19 -39 -14 -15 -22 -30 -19 -33 4 -3 -1 -6 -10 -6 -9 0 -16
-3 -16 -7 4 -25 -3 -43 -16 -43 -8 0 -12 -6 -9 -14 3 -8 -4 -20 -15 -28 -12
-8 -18 -18 -14 -21 3 -4 1 -7 -6 -7 -7 0 -9 -4 -6 -10 6 -9 -8 -14 -27 -11 -5
0 -8 -6 -8 -14 0 -20 -10 -19 -27 3 -9 11 -12 12 -8 2 4 -8 -3 -4 -15 10 -12
14 -19 18 -15 10 4 -8 -1 -6 -10 5 -9 11 -21 20 -28 20 -7 1 -11 7 -9 15 3 11
0 11 -12 0 -13 -10 -16 -10 -16 4 0 10 -4 15 -9 12 -5 -3 -20 3 -33 14 -14 11
-28 16 -32 13 -3 -3 -6 1 -6 10 0 9 -5 17 -11 17 -5 0 -7 -6 -3 -12 4 -7 -5
-2 -19 11 -15 14 -30 21 -33 18 -4 -4 -15 3 -25 15 -12 13 -19 16 -19 8 0 -9
-5 -7 -14 6 -8 10 -18 16 -22 12 -4 -4 -13 0 -21 10 -8 9 -11 11 -8 4 6 -11 3
-11 -16 0 -13 7 -27 18 -31 23 -5 6 -8 4 -8 -5 -1 -12 -3 -12 -11 2 -6 11 -16
15 -26 11 -10 -4 -14 -2 -10 4 4 7 0 10 -10 8 -10 -1 -24 2 -31 8 -7 6 -23 12
-35 13 -42 6 -56 10 -63 17 -4 4 -22 7 -39 7 -17 0 -35 3 -39 7 -7 7 -24 11
-63 15 -13 1 -23 7 -23 13 0 6 -3 7 -8 0 -9 -13 -32 -18 -32 -7 0 11 -275 10
-285 0 -4 -4 -17 -3 -28 3 -11 6 -17 7 -13 1 3 -5 -11 -12 -32 -15 -20 -3 -50
-9 -66 -12 -16 -3 -34 -7 -40 -8 -6 -1 -13 -5 -16 -8 -3 -3 -34 -16 -70 -29
-36 -13 -82 -34 -102 -47 -21 -13 -40 -23 -42 -23 -14 0 -122 -79 -168 -122
-16 -16 -33 -28 -38 -28 -6 0 -10 -6 -10 -14 0 -8 -9 -18 -20 -21 -11 -3 -20
-10 -20 -15 0 -5 -20 -29 -45 -54 -25 -25 -43 -46 -40 -46 3 0 -11 -16 -30
-37 -19 -20 -32 -40 -29 -45 3 -4 1 -8 -4 -8 -5 0 -29 -29 -53 -65 -23 -36
-46 -65 -51 -65 -4 0 -7 -3 -6 -7 2 -12 -24 -63 -33 -63 -4 0 -10 -12 -14 -27
-3 -15 -10 -30 -13 -33 -12 -9 -72 -129 -72 -144 0 -8 -5 -16 -11 -18 -5 -2
-11 -11 -13 -20 -1 -10 -5 -21 -9 -24 -4 -4 -7 -16 -7 -26 0 -10 -4 -18 -8
-18 -7 0 -12 -19 -15 -62 -1 -10 -5 -18 -10 -18 -5 0 -7 -7 -4 -15 4 -8 2 -17
-4 -21 -6 -3 -8 -12 -5 -19 2 -7 2 -16 -2 -20 -7 -7 -11 -37 -14 -117 -1 -33
-6 -54 -12 -51 -5 4 -6 1 -1 -8 5 -7 10 -47 12 -89 1 -41 5 -88 7 -105 2 -16
7 -55 11 -85 4 -30 10 -56 15 -58 4 -2 5 -12 2 -24 -3 -12 -1 -19 4 -16 5 4 9
-4 10 -15 2 -31 8 -60 17 -74 5 -7 5 -13 1 -13 -3 0 -2 -6 4 -13 6 -7 13 -24
15 -37 3 -14 19 -56 37 -95 17 -38 30 -70 29 -70 -1 0 10 -19 24 -42 15 -24
27 -47 27 -53 0 -5 5 -10 11 -10 5 0 7 -5 4 -10 -3 -5 -1 -10 6 -10 7 0 10 -3
6 -6 -3 -3 3 -15 14 -27 10 -11 19 -27 19 -34 0 -7 5 -13 10 -13 6 0 10 -4 10
-10 0 -9 19 -35 48 -65 6 -8 12 -18 12 -24 0 -6 4 -11 8 -11 5 0 15 -11 22
-25 7 -14 20 -25 27 -25 8 0 12 -4 9 -8 -3 -5 5 -18 17 -30 12 -11 43 -42 69
-69 25 -26 67 -66 93 -88 25 -22 52 -46 60 -52 7 -7 19 -13 25 -13 6 0 8 -4 5
-10 -3 -5 0 -10 7 -10 8 0 20 -9 28 -19 7 -11 17 -18 22 -15 4 3 8 0 8 -6 0
-6 4 -9 8 -6 5 3 15 -4 22 -15 8 -10 20 -19 27 -19 7 0 13 -4 13 -10 0 -5 5
-10 11 -10 7 0 20 -10 30 -22 11 -11 19 -17 19 -12 0 5 4 4 8 -1 4 -6 28 -24
54 -40 27 -17 48 -34 48 -38 0 -5 4 -6 9 -3 5 3 20 -3 33 -14 14 -11 28 -16
32 -13 3 3 6 2 6 -4 0 -5 21 -21 47 -34 27 -13 50 -27 51 -31 2 -5 10 -8 18
-8 9 0 12 -5 8 -12 -4 -6 -3 -8 3 -5 6 4 19 0 29 -8 10 -8 29 -15 42 -15 13 0
20 -4 17 -10 -3 -5 1 -10 9 -10 9 0 16 -4 16 -10 0 -5 7 -7 15 -4 8 4 15 2 15
-3 0 -5 25 -20 55 -33 30 -13 55 -28 55 -32 0 -4 3 -7 8 -6 13 4 56 -14 86
-35 16 -12 26 -15 21 -7 -5 8 7 3 25 -10 19 -13 30 -18 26 -9 -4 7 0 5 8 -5 9
-11 16 -16 16 -12 0 5 6 3 13 -3 8 -6 17 -8 21 -4 3 4 13 -2 22 -13 8 -10 13
-14 10 -7 -4 6 10 3 31 -7 21 -10 41 -16 45 -13 5 2 8 -1 8 -8 0 -7 3 -9 7 -6
3 4 15 -1 26 -10 11 -10 17 -12 13 -6 -5 9 -2 11 8 7 9 -3 16 -10 16 -16 0 -5
4 -6 10 -3 5 3 27 -3 48 -13 21 -10 46 -18 55 -16 10 1 17 -2 17 -7 0 -5 9 -9
20 -9 11 0 20 -4 20 -8 0 -5 6 -9 13 -10 22 -2 42 -7 55 -15 6 -5 12 -5 12 -1
0 4 8 1 18 -7 9 -8 31 -16 47 -18 17 -2 32 -7 33 -12 2 -5 8 -7 13 -3 5 3 9 0
9 -6 0 -6 5 -8 10 -5 6 4 18 1 27 -7 14 -11 16 -11 8 2 -8 13 -6 13 8 2 9 -8
21 -11 26 -8 5 4 13 1 17 -5 5 -8 3 -9 -7 -4 -8 5 -11 5 -7 0 5 -5 22 -10 40
-12 18 -2 35 -8 39 -15 4 -6 14 -8 23 -5 9 4 16 2 16 -4 0 -6 7 -9 15 -5 8 3
15 1 15 -4 0 -5 7 -7 15 -4 8 4 15 2 15 -4 0 -6 9 -8 20 -5 11 3 20 0 20 -6 0
-6 14 -11 30 -11 17 0 30 -5 30 -12 0 -6 3 -8 7 -5 3 4 12 -1 20 -11 8 -9 11
-11 8 -4 -10 18 26 12 43 -8 12 -13 13 -13 6 0 -7 12 -5 13 8 3 8 -7 18 -10
21 -6 4 3 7 1 7 -5 0 -7 9 -12 21 -12 12 0 17 -4 13 -11 -4 -8 0 -8 15 0 14 8
21 8 21 1 0 -5 11 -10 25 -10 14 0 25 -5 25 -11 0 -6 7 -9 15 -6 8 4 17 2 21
-4 3 -6 12 -8 19 -5 8 3 15 0 17 -5 2 -5 14 -11 28 -13 14 -2 36 -8 50 -14 14
-5 28 -8 33 -5 4 2 7 -1 7 -7 0 -6 4 -9 9 -6 5 3 14 -1 21 -9 7 -8 16 -12 21
-9 5 2 23 -2 40 -11 18 -10 28 -12 24 -5 -4 7 4 5 17 -4 14 -9 28 -13 31 -9 4
3 7 2 7 -3 0 -5 10 -10 23 -12 12 -1 40 -10 62 -21 21 -10 44 -17 51 -14 7 2
15 -1 19 -6 3 -6 11 -9 16 -6 5 4 9 1 9 -4 0 -6 9 -11 20 -11 23 0 72 -21 82
-35 5 -6 8 -6 8 2 0 9 7 8 27 -2 15 -8 30 -12 35 -9 4 3 8 0 8 -7 0 -7 10 -9
25 -7 13 3 23 1 22 -5 -2 -9 20 -17 56 -20 9 -1 17 -5 17 -10 0 -4 6 -7 13 -6
23 3 38 -1 34 -9 -3 -4 11 -8 30 -9 19 -1 41 -7 48 -13 9 -8 15 -8 20 0 4 7
12 7 26 0 14 -8 19 -7 19 2 0 8 3 9 8 3 8 -11 37 -13 47 -3 4 4 13 4 21 1 8
-3 14 0 14 7 0 6 4 8 10 5 12 -7 70 22 70 35 0 6 3 9 8 9 19 -3 33 2 27 11 -3
6 -1 10 4 10 6 0 24 18 40 40 15 21 32 36 36 32 3 -4 6 -2 4 3 -1 6 4 24 11
40 31 72 49 129 44 136 -3 5 -1 9 4 9 6 0 13 7 16 16 3 9 2 12 -5 8 -7 -4 -7
0 0 12 17 33 24 58 24 96 1 21 6 38 11 38 6 0 4 5 -4 10 -8 5 -10 10 -4 10 7
0 11 19 10 49 -1 27 3 47 8 44 5 -3 7 6 4 21 -3 14 -3 28 1 30 3 2 6 30 6 63
0 32 4 61 10 65 6 5 5 8 -3 8 -8 0 -10 5 -5 13 11 18 11 50 -1 66 -8 11 -8 13
1 8 6 -4 14 -3 18 3 3 5 3 10 -2 10 -4 0 -8 29 -8 65 0 51 3 65 15 66 10 0 8
3 -5 9 -13 6 -15 9 -5 9 13 1 13 2 0 11 -8 5 -10 10 -5 10 6 0 10 28 9 65 0
36 3 65 8 65 4 0 4 10 -1 22 -4 13 -5 34 -2 48 4 14 6 51 6 82 0 32 4 58 9 58
5 0 3 7 -4 15 -8 10 -9 15 -2 15 6 0 9 7 6 15 -4 9 0 15 7 15 11 0 11 2 0 9
-12 8 -12 12 -2 24 8 11 9 17 1 22 -8 5 -8 10 0 20 8 10 8 15 0 20 -8 5 -8 11
1 21 9 11 9 17 0 28 -9 11 -9 16 -1 21 7 4 10 16 7 26 -3 11 -2 19 2 19 4 0 5
16 3 36 -3 27 -1 35 8 29 9 -6 9 -3 1 13 -6 12 -7 23 -3 26 5 3 7 25 6 50 -1
27 2 46 8 46 6 0 6 6 -2 15 -9 11 -9 15 -1 15 7 0 10 4 6 9 -3 5 -1 13 5 16 8
5 7 11 -1 21 -9 11 -8 14 2 14 11 0 11 2 -1 10 -9 6 -11 10 -3 10 7 0 10 7 7
15 -4 8 -1 15 6 15 9 0 10 3 1 13 -8 10 -7 17 1 25 7 7 8 12 4 12 -5 0 -3 7 4
15 7 9 8 15 2 15 -5 0 -8 9 -5 20 3 11 10 17 17 13 6 -4 5 0 -2 9 -8 10 -9 19
-3 22 5 3 8 14 6 24 -1 9 1 24 6 33 5 10 3 21 -4 28 -9 10 -9 12 2 9 14 -3 23
21 22 60 0 12 4 22 9 22 6 0 9 3 9 8 -4 18 14 91 21 87 5 -3 7 6 5 20 -1 14 2
25 7 25 5 0 7 4 3 9 -3 5 -1 12 5 16 6 4 8 11 5 16 -4 5 -2 9 4 9 6 0 8 6 5
14 -3 8 -1 17 5 20 6 4 8 13 4 21 -3 8 0 15 7 15 6 0 9 4 6 9 -4 5 0 12 6 14
10 4 9 6 -1 6 -10 1 -11 4 -2 14 6 8 13 27 15 43 2 16 8 42 15 57 6 16 9 33 5
38 -3 5 0 9 6 9 7 0 10 7 6 15 -3 8 -2 15 2 15 4 0 8 17 10 37 1 20 7 40 13
44 8 4 7 8 -2 12 -11 4 -11 6 -1 6 7 1 10 6 6 12 -3 6 0 15 7 20 12 7 12 9 0
9 -11 0 -11 3 -1 15 10 12 10 15 -1 15 -11 0 -11 2 1 10 13 9 13 10 0 10 -12
0 -13 2 -1 9 7 5 10 14 7 20 -4 6 -1 11 6 11 8 0 9 3 3 8 -13 9 -14 62 -1 62
5 0 1 10 -10 22 -10 12 -13 18 -6 14 12 -7 17 7 12 29 -2 6 -3 29 -2 53 0 26
-3 40 -10 36 -6 -4 -5 2 1 15 9 16 9 21 0 21 -8 0 -8 4 1 15 7 8 8 15 2 15 -5
0 -12 21 -15 48 -7 59 -11 74 -20 90 -5 6 -5 17 -2 22 3 6 2 10 -3 10 -6 0
-13 16 -16 35 -4 19 -12 35 -18 35 -6 0 -8 3 -5 6 3 4 1 16 -5 28 -7 11 -13
23 -13 26 -7 26 -27 60 -36 60 -7 0 -10 3 -6 6 8 9 -19 61 -49 93 -13 14 -24
32 -24 39 0 7 -7 15 -15 18 -8 4 -12 10 -9 15 3 5 0 9 -6 9 -6 0 -8 5 -5 10 3
6 -1 10 -9 10 -9 0 -16 6 -16 13 0 7 -13 23 -30 37 -16 14 -30 31 -30 38 0 7
-4 10 -10 7 -5 -3 -10 1 -10 9 0 9 -5 16 -10 16 -6 0 -24 12 -40 28 -47 43
-70 62 -75 62 -10 0 -42 35 -38 42 2 4 -6 5 -17 3 -12 -2 -20 1 -20 10 0 7
-14 17 -31 20 -24 6 -28 9 -18 17 10 7 8 8 -8 5 -16 -4 -23 0 -23 10 0 8 -4
11 -10 8 -5 -3 -10 -1 -10 6 0 7 -3 9 -7 6 -3 -4 -15 1 -26 10 -15 13 -19 14
-13 3 6 -12 5 -12 -6 1 -7 9 -19 14 -27 11 -8 -3 -11 0 -7 7 4 6 0 11 -10 11
-10 0 -26 8 -37 18 -11 9 -17 11 -13 5 5 -9 2 -11 -8 -7 -9 3 -16 9 -16 13 0
4 -9 8 -20 9 -44 4 -50 6 -50 17 0 6 -13 10 -30 9 -16 -1 -30 2 -30 8 0 5 -6
8 -12 5 -7 -2 -28 2 -46 9 -18 7 -30 9 -27 5 3 -5 -4 -7 -15 -4 -11 3 -20 8
-20 12 0 3 -35 6 -78 6 -42 0 -80 3 -83 8 -3 4 -9 4 -12 0z"/>
</g>
</svg>
